<svg width="477" height="410" viewBox="0 0 477 410" fill="none" xmlns="http://www.w3.org/2000/svg">
<path d="M119.261 93.4845L114.762 139.62L164.198 143.818L168.697 97.6831L119.261 93.4845Z" fill="#fc035a"/>
<path d="M0 11.281V57.6025H0.149103V99.8572H49.7894V53.5357H11.2199V11.281H0Z" fill="#fc035a"/>
<path d="M41.7427 105.493H0V151.819H41.7427V105.493Z" fill="#fc035a"/>
<path d="M36.7114 163.399H0V209.721H36.7114V163.399Z" fill="#fc035a"/>
<path d="M0 268.808L30.3645 270.635L33.5606 224.406L0 222.386V268.808Z" fill="#fc035a"/>
<path d="M196.479 137.823L166.952 175.062L206.856 202.617L236.383 165.378L196.479 137.823Z" fill="#fc035a"/>
<path d="M263.816 72.9385L232.576 108.94L271.154 138.094L302.393 102.092L263.816 72.9385Z" fill="#fc035a"/>
<path d="M261.067 15.0135L236.247 55.1328L279.236 78.2956L304.056 38.1763L261.067 15.0135Z" fill="#fc035a"/>
<path d="M247.785 0.00439453L246.867 9.39948L296.304 13.5971L297.629 0.00439453H247.785Z" fill="#fc035a"/>
<path d="M389.979 0.00439453L401.67 8.83839L370.211 38.1965L405.308 70.9548L440.411 38.1965L406.398 6.45481L411.999 0.00439453H389.979Z" fill="#fc035a"/>
<path d="M266.79 355.267H316.426V401.592H266.79V355.267ZM205.347 317.648L250.421 298.242L271.216 340.307L226.141 359.713L205.347 317.648ZM269.977 306.937L318.577 297.521L328.636 342.75H372.435V389.076H322.795V344.02L280.062 352.297L269.972 306.937H269.977ZM270.076 254.11L315.151 234.704L335.945 276.769L290.871 296.175L270.076 254.11ZM331.687 240.893L380.288 231.481L390.377 276.837L341.777 286.253L331.687 240.893ZM273.078 202.178L288.005 188.248L309.256 170.44L342.419 204.907L305.486 235.856L273.078 202.174V202.178ZM406.48 172.659L455.085 163.243L465.175 208.599L416.574 218.015L406.484 172.659H406.48ZM339.503 186.813L375.351 171.381L343.092 137.851L380.025 106.902L413.188 141.369L379.519 169.584L384.578 167.407L405.372 209.472L360.298 228.878L339.503 186.813ZM408.084 127.401L449.249 101.515L476.987 139.931L435.822 165.817L408.084 127.401ZM470.947 0.00422284L476.164 3.94872L415.06 63.0488L444.529 40.3352L476.137 76.0508L437.866 105.552L407.081 70.7648L372.892 103.831L340.199 73.3213L370.116 38.8417L333.803 11.399L343.685 16.3391L353.065 0H311.005L331.185 10.0912L300.296 45.6887L338.007 74.1862L304.464 105.489L338.414 137.172L305.689 168.825L272.151 137.526L237.054 170.284L271.216 202.165L235.937 236.286L203.602 202.68L167.292 233.105L140.911 208.485L144.125 210.092L167.573 169.259L123.818 147.377L100.37 188.21L132.746 204.401L99.5384 235.388L134.64 268.146L169.015 236.067L199.836 268.1L236.769 237.151L236.597 236.97L240.164 233.983L273.327 268.45L236.394 299.398L204.723 266.484L171.623 298.495L137.656 266.796L102.558 299.554L137.149 331.836L106.568 361.418L71.9223 329.085L36.8247 361.839L71.9223 394.594L81.6777 385.494L80.7645 386.376L109.149 364.944L140.368 400.955L129.55 409.123H154.888L140.341 377.094L170.886 365.012L138.587 331.444L153.509 317.513L174.76 299.706L207.923 334.173L171.338 364.831L186.039 359.017L205.414 401.668L186.559 409.127H212.665L203.231 366.716L251.836 357.3L261.926 402.66L228.532 409.127H320.119V395.015H369.759V409.127H374.117V381.558H423.757V409.127H427.78V374.356H381.834V335.232H332.532V288.906H382.173V328.031H431.474V370.598H476.996V365.902H435.497V320.829H391.562V274.508H441.202V319.581H476.996V313.008H447.237V266.682H397.936V220.361H447.576V266.682H477V259.169H460.324V212.843H477V0.00422284H470.956H470.947Z" fill="#fc035a"/>
<path d="M191.492 79.3988L168.05 120.234L211.806 142.111L235.248 101.276L191.492 79.3988Z" fill="#fc035a"/>
<path d="M184.33 31.506L179.831 77.6411L229.266 81.8397L233.766 35.7046L184.33 31.506Z" fill="#fc035a"/>
<path d="M172.884 0.00439453H123.244V23.8022H172.884V0.00439453Z" fill="#fc035a"/>
<path d="M231.57 0.00439453H181.934V20.3597H231.57V0.00439453Z" fill="#fc035a"/>
<path d="M24.9719 0.00439453V2.51453H67.5691V34.754H116.197V79.8268H165.837V33.5052H117.205V0.00439453H24.9719Z" fill="#fc035a"/>
<path d="M0 0.00439453V7.83856H14.5743V52.9071H56.4979V90.7828H106.138V44.457H64.21V6.5856H21.6172V0.00439453H0Z" fill="#fc035a"/>
<path d="M64.2236 266.167L31.5 301.002L68.8272 331.541L101.551 296.706L64.2236 266.167Z" fill="#fc035a"/>
<path d="M0 329.199L10.3068 334.354L33.7504 293.522L0 276.642V329.199Z" fill="#fc035a"/>
<path d="M0 388.164L9.69657 394.864L39.2294 357.629L0 330.532V388.164Z" fill="#fc035a"/>
<path d="M58.49 208.763L33.6699 248.883L76.6596 272.045L101.48 231.926L58.49 208.763Z" fill="#fc035a"/>
<path d="M50.141 160.718L46.9463 206.948L96.4836 209.929L99.6784 163.699L50.141 160.718Z" fill="#fc035a"/>
<path d="M102.115 100.798H52.4751V147.124H102.115V100.798Z" fill="#fc035a"/>
<path d="M57.2437 409.131H83.603L71.5828 395.26L57.2437 409.131Z" fill="#fc035a"/>
</svg>
